<svg width="28" height="20" viewBox="0 0 28 20" fill="none" xmlns="http://www.w3.org/2000/svg">
<path fill-rule="evenodd" clip-rule="evenodd" d="M28 4C28 1.79086 26.2091 0 24 0H4C1.79086 0 0 1.79086 0 4V16V20L4 16H24C26.2091 16 28 14.2091 28 12V4ZM8 10C9.10457 10 10 9.10457 10 8C10 6.89543 9.10457 6 8 6C6.89543 6 6 6.89543 6 8C6 9.10457 6.89543 10 8 10ZM16 8C16 9.10457 15.1046 10 14 10C12.8954 10 12 9.10457 12 8C12 6.89543 12.8954 6 14 6C15.1046 6 16 6.89543 16 8ZM22 8C22 9.10457 21.1046 10 20 10C18.8954 10 18 9.10457 18 8C18 6.89543 18.8954 6 20 6C21.1046 6 22 6.89543 22 8Z" fill="#FFCB05"/>
</svg>
