<svg width="567" height="284" viewBox="0 0 567 284" fill="none" xmlns="http://www.w3.org/2000/svg">
<g clip-path="url(#clip0_4127_35692)">
<path d="M283.46 0C126.91 0 0 63.46 0 141.73C0 220 126.91 283.46 283.46 283.46C440.01 283.46 566.93 220 566.93 141.73C566.93 63.46 440 0 283.46 0ZM283.46 261.09C139.27 261.09 22.38 207.65 22.38 141.73C22.38 75.81 139.27 22.38 283.46 22.38C427.65 22.38 544.55 75.81 544.55 141.73C544.55 207.65 427.66 261.09 283.46 261.09ZM247.72 116.87V94.49H327.72V116.87H298.92V189H276.51V116.87H247.72ZM424.22 94.49V189H401.84L361.25 132.75V189H338.88V94.49H361.25L401.84 150.74V94.49H424.22ZM142.05 189V94.49H164.43L189.29 132.73L214.15 94.49H236.53V189H214.15V135.53L197.15 161.62H181.4L164.4 135.53V189H142.05Z" fill="#F8C000"/>
</g>
<defs>
<clipPath id="clip0_4127_35692">
<rect width="566.93" height="283.46" fill="white"/>
</clipPath>
</defs>
</svg>
